<?xml version="1.0" encoding="utf-8"?>
<!-- Generated by IcoMoon.io -->
<!DOCTYPE svg PUBLIC "-//W3C//DTD SVG 1.1//EN" "http://www.w3.org/Graphics/SVG/1.1/DTD/svg11.dtd">
<svg version="1.1" xmlns="http://www.w3.org/2000/svg" xmlns:xlink="http://www.w3.org/1999/xlink" width="48" height="48" viewBox="0 0 48 48">
<path d="M24 0c-13.255 0-24 10.745-24 24s10.745 24 24 24c13.255 0 24-10.745 24-24s-10.745-24-24-24zM33 11.063c2.998 0 5.438 2.439 5.438 5.438 0 0.299-0.026 0.604-0.076 0.905-0.076 0.451-0.467 0.782-0.925 0.782s-0.849-0.331-0.924-0.782c-0.289-1.72-1.766-2.499-3.512-2.499s-3.223 0.779-3.512 2.499c-0.076 0.451-0.467 0.782-0.924 0.782-0 0 0 0-0 0-0.458 0-0.849-0.331-0.924-0.782-0.051-0.302-0.076-0.606-0.076-0.905 0-2.998 2.439-5.438 5.438-5.438zM15 11.063c2.998 0 5.438 2.439 5.438 5.438 0 0.299-0.026 0.604-0.076 0.905-0.076 0.451-0.467 0.782-0.925 0.782s-0.849-0.331-0.924-0.782c-0.289-1.72-1.766-2.499-3.512-2.499s-3.223 0.779-3.512 2.499c-0.076 0.451-0.467 0.782-0.924 0.782 0 0 0 0 0 0-0.458 0-0.849-0.331-0.925-0.782-0.051-0.302-0.076-0.606-0.076-0.905 0-2.998 2.439-5.438 5.438-5.438zM9 27h9v11.618c-5.161-1.341-9-6.053-9-11.618zM21 39v-12h6v12h-6zM30 38.618v-11.618h9c0 5.565-3.839 10.277-9 11.618z"></path>
</svg>
