<?xml version="1.0" encoding="utf-8"?>
<!-- Generated by IcoMoon.io -->
<!DOCTYPE svg PUBLIC "-//W3C//DTD SVG 1.1//EN" "http://www.w3.org/Graphics/SVG/1.1/DTD/svg11.dtd">
<svg version="1.1" xmlns="http://www.w3.org/2000/svg" xmlns:xlink="http://www.w3.org/1999/xlink" width="48" height="48" viewBox="0 0 48 48">
<path d="M24 0c-13.255 0-24 10.745-24 24s10.745 24 24 24c13.255 0 24-10.745 24-24s-10.745-24-24-24zM33 12c1.657 0 3 2.015 3 4.5s-1.343 4.5-3 4.5-3-2.015-3-4.5 1.343-4.5 3-4.5zM16.5 14.628c2.796 0 4.781 1.047 4.781 2.685 0 0.347 0.179 2.015-0.008 2.325-0.695-1.152-2.569-1.978-4.773-1.978s-4.078 0.826-4.773 1.978c-0.187-0.309-0.008-1.978-0.008-2.325 0-1.638 1.985-2.685 4.781-2.685zM23.454 39c-5.589 0-10.493-3.013-13.261-7.545 3.3 2.581 9.119 3.085 15.248 1.874 6.574-1.299 11.677-4.291 13.521-8.278-1.015 7.873-7.571 13.948-15.509 13.948z"></path>
</svg>
