<?xml version="1.0" encoding="utf-8"?>
<!-- Generator: Adobe Illustrator 19.2.1, SVG Export Plug-In . SVG Version: 6.00 Build 0)  -->
<svg version="1.1" id="Layer_1" xmlns="http://www.w3.org/2000/svg" xmlns:xlink="http://www.w3.org/1999/xlink" x="0px" y="0px"
	 viewBox="0 0 52 52" style="enable-background:new 0 0 52 52;" xml:space="preserve">
<path d="M26,2C12.7,2,2,12.7,2,26s10.7,24,24,24s24-10.7,24-24S39.3,2,26,2z M35,13.1c3,0,5.4,2.4,5.4,5.4c0,0.3,0,0.6-0.1,0.9
	c-0.1,0.5-0.5,0.8-0.9,0.8s-0.8-0.3-0.9-0.8c-0.3-1.7-1.8-2.5-3.5-2.5s-3.2,0.8-3.5,2.5c-0.1,0.5-0.5,0.8-0.9,0.8l0,0
	c-0.5,0-0.8-0.3-0.9-0.8c-0.1-0.3-0.1-0.6-0.1-0.9C29.6,15.5,32,13.1,35,13.1L35,13.1z M17,13.1c3,0,5.4,2.4,5.4,5.4
	c0,0.3,0,0.6-0.1,0.9c-0.1,0.5-0.5,0.8-0.9,0.8s-0.8-0.3-0.9-0.8c-0.3-1.7-1.8-2.5-3.5-2.5c-1.7,0-3.2,0.8-3.5,2.5
	c-0.1,0.5-0.5,0.8-0.9,0.8l0,0c-0.5,0-0.8-0.3-0.9-0.8c-0.1-0.3-0.1-0.6-0.1-0.9C11.6,15.5,14,13.1,17,13.1L17,13.1z M11,29h9v11.6
	C14.8,39.3,11,34.6,11,29z M23,41V29h6v12H23z M32,40.6V29h9C41,34.6,37.2,39.3,32,40.6z"/>
</svg>
