<?xml version="1.0" encoding="utf-8"?>
<!-- Generator: Adobe Illustrator 19.2.1, SVG Export Plug-In . SVG Version: 6.00 Build 0)  -->
<svg version="1.1" id="Layer_1" xmlns="http://www.w3.org/2000/svg" xmlns:xlink="http://www.w3.org/1999/xlink" x="0px" y="0px"
	 viewBox="0 0 52 52" style="enable-background:new 0 0 52 52;" xml:space="preserve">
<g>
	<circle cx="35" cy="17" r="3"/>
	<circle cx="17" cy="17" r="3"/>
	<path d="M26,2C12.7,2,2,12.7,2,26s10.7,24,24,24s24-10.7,24-24S39.3,2,26,2z M26,45.5C15.2,45.5,6.5,36.8,6.5,26S15.2,6.5,26,6.5
		S45.5,15.2,45.5,26S36.8,45.5,26,45.5z"/>
	<path d="M33.7,27.3c-1.8-1.8-4.6-1.8-6.4,0s-1.8,4.6,0,6.4c0.1,0.1,0.1,0.1,0.2,0.2C31.5,37.5,41,33.8,41,29
		C38.1,30.9,35.8,29.5,33.7,27.3z"/>
	<path d="M18.3,27.3c-2.1,2.1-4.4,3.6-7.3,1.7c0,4.8,9.5,8.5,13.5,4.8c0.1-0.1,0.1-0.1,0.2-0.2c1.8-1.8,1.8-4.6,0-6.4
		S20.1,25.6,18.3,27.3z"/>
</g>
</svg>
