<?xml version="1.0" encoding="utf-8"?>
<!-- Generator: Adobe Illustrator 19.2.1, SVG Export Plug-In . SVG Version: 6.00 Build 0)  -->
<svg version="1.1" id="Layer_1" xmlns="http://www.w3.org/2000/svg" xmlns:xlink="http://www.w3.org/1999/xlink" x="0px" y="0px"
	 viewBox="0 0 52 52" style="enable-background:new 0 0 52 52;" xml:space="preserve">
<path d="M26,2C12.7,2,2,12.7,2,26s10.7,24,24,24s24-10.7,24-24S39.3,2,26,2z M35,14c1.7,0,3,1.3,3,3s-1.3,3-3,3s-3-1.3-3-3
	S33.3,14,35,14z M17,14c1.7,0,3,1.3,3,3s-1.3,3-3,3s-3-1.3-3-3S15.3,14,17,14z M27.5,33.8c-0.1-0.1-0.1-0.1-0.2-0.2
	c-0.9-0.9-1.3-2-1.3-3.2c0,1.2-0.4,2.3-1.3,3.2c-0.1,0.1-0.1,0.1-0.2,0.2C20.5,37.5,11,33.8,11,29c2.9,1.9,5.2,0.5,7.3-1.7
	c1.8-1.8,4.6-1.8,6.4,0c0.9,0.9,1.3,2,1.3,3.2c0-1.2,0.4-2.3,1.3-3.2c1.8-1.8,4.6-1.8,6.4,0c2.1,2.1,4.4,3.6,7.3,1.7
	C41,33.8,31.5,37.5,27.5,33.8z"/>
</svg>
