<?xml version="1.0" encoding="utf-8"?>
<!-- Generator: Adobe Illustrator 19.2.1, SVG Export Plug-In . SVG Version: 6.00 Build 0)  -->
<svg version="1.1" id="Layer_1" xmlns="http://www.w3.org/2000/svg" xmlns:xlink="http://www.w3.org/1999/xlink" x="0px" y="0px"
	 viewBox="0 0 52 52" style="enable-background:new 0 0 52 52;" xml:space="preserve">
<path d="M26,2C12.7,2,2,12.7,2,26s10.7,24,24,24s24-10.7,24-24S39.3,2,26,2z M35,14c1.7,0,3,1.3,3,3s-1.3,3-3,3s-3-1.3-3-3
	S33.3,14,35,14z M17,14c1.7,0,3,1.3,3,3s-1.3,3-3,3s-3-1.3-3-3S15.3,14,17,14z M35,38.6c-1.8-3.1-5.2-5.1-9-5.1s-7.2,2-9,5.1
	l-3.9-2.3C15.8,31.9,20.5,29,26,29s10.2,2.9,12.9,7.3C38.9,36.3,35,38.6,35,38.6z"/>
</svg>
