<?xml version="1.0" encoding="utf-8"?><!DOCTYPE svg PUBLIC "-//W3C//DTD SVG 1.1//EN" "http://www.w3.org/Graphics/SVG/1.1/DTD/svg11.dtd"><svg xmlns="http://www.w3.org/2000/svg" xmlns:xlink="http://www.w3.org/1999/xlink"><symbol viewBox="0 0 52 52" id="grin"><path d="M26 50c13.3 0 24-10.7 24-24S39.3 2 26 2 2 12.7 2 26s10.7 24 24 24zm0-43.5c10.8 0 19.5 8.7 19.5 19.5S36.8 45.5 26 45.5 6.5 36.8 6.5 26 15.2 6.5 26 6.5zM11 26v3c0 6.6 5.4 12 12 12h6c6.6 0 12-5.4 12-12v-3H11zm9 11.5c-1.2-.4-2.4-1.2-3.4-2.1-1.7-1.7-2.6-4-2.6-6.4h6v8.5zm9 .5h-6v-9h6v9zm6.4-2.6c-1 1-2.1 1.7-3.4 2.1V29h6c0 2.4-.9 4.6-2.6 6.4zM12.6 20c.5 0 .8-.3.9-.8.3-1.7 1.8-3 3.5-3s3.2 1.2 3.5 3c.1.5.5.8.9.8s.8-.3.9-.8c.1-.3.1-.6.1-.9 0-3-2.4-5.4-5.4-5.4s-5.4 2.4-5.4 5.4c0 .3 0 .6.1.9 0 .5.4.8.9.8zm18 0c.5 0 .8-.3.9-.8.3-1.7 1.8-3 3.5-3s3.2 1.2 3.5 3c.1.5.5.8.9.8s.8-.3.9-.8c.1-.3.1-.6.1-.9 0-3-2.4-5.4-5.4-5.4s-5.4 2.4-5.4 5.4c0 .3 0 .6.1.9 0 .5.4.8.9.8z"/></symbol><symbol viewBox="0 0 52 52" id="grin2"><path d="M26 2C12.7 2 2 12.7 2 26s10.7 24 24 24 24-10.7 24-24S39.3 2 26 2zm9 11.1c3 0 5.4 2.4 5.4 5.4 0 .3 0 .6-.1.9-.1.5-.5.8-.9.8s-.8-.3-.9-.8c-.3-1.7-1.8-2.5-3.5-2.5s-3.2.8-3.5 2.5c-.1.5-.5.8-.9.8-.5 0-.8-.3-.9-.8-.1-.3-.1-.6-.1-.9 0-3 2.4-5.4 5.4-5.4zm-18 0c3 0 5.4 2.4 5.4 5.4 0 .3 0 .6-.1.9-.1.5-.5.8-.9.8s-.8-.3-.9-.8c-.3-1.7-1.8-2.5-3.5-2.5s-3.2.8-3.5 2.5c-.1.5-.5.8-.9.8-.5 0-.8-.3-.9-.8-.1-.3-.1-.6-.1-.9 0-3 2.4-5.4 5.4-5.4zM11 29h9v11.6c-5.2-1.3-9-6-9-11.6zm12 12V29h6v12h-6zm9-.4V29h9c0 5.6-3.8 10.3-9 11.6z"/></symbol><symbol viewBox="0 0 52 52" id="sad"><path d="M26 50c13.3 0 24-10.7 24-24S39.3 2 26 2 2 12.7 2 26s10.7 24 24 24zm0-43.5c10.8 0 19.5 8.7 19.5 19.5S36.8 45.5 26 45.5 6.5 36.8 6.5 26 15.2 6.5 26 6.5zM14 17c0-1.7 1.3-3 3-3s3 1.3 3 3-1.3 3-3 3-3-1.3-3-3zm18 0c0-1.7 1.3-3 3-3s3 1.3 3 3-1.3 3-3 3-3-1.3-3-3zM17 38.6l-3.9-2.3C15.8 31.9 20.5 29 26 29s10.2 2.9 12.9 7.3L35 38.6c-1.8-3.1-5.2-5.1-9-5.1s-7.2 2-9 5.1z"/></symbol><symbol viewBox="0 0 52 52" id="sad2"><path d="M26 2C12.7 2 2 12.7 2 26s10.7 24 24 24 24-10.7 24-24S39.3 2 26 2zm9 12c1.7 0 3 1.3 3 3s-1.3 3-3 3-3-1.3-3-3 1.3-3 3-3zm-18 0c1.7 0 3 1.3 3 3s-1.3 3-3 3-3-1.3-3-3 1.3-3 3-3zm18 24.6c-1.8-3.1-5.2-5.1-9-5.1s-7.2 2-9 5.1l-3.9-2.3C15.8 31.9 20.5 29 26 29s10.2 2.9 12.9 7.3L35 38.6z"/></symbol><symbol viewBox="0 0 52 52" id="smile"><path d="M26 50c13.3 0 24-10.7 24-24S39.3 2 26 2 2 12.7 2 26s10.7 24 24 24zm0-43.5c10.8 0 19.5 8.7 19.5 19.5S36.8 45.5 26 45.5 6.5 36.8 6.5 26 15.2 6.5 26 6.5zM14 17c0-1.7 1.3-3 3-3s3 1.3 3 3-1.3 3-3 3-3-1.3-3-3zm18 0c0-1.7 1.3-3 3-3s3 1.3 3 3-1.3 3-3 3-3-1.3-3-3zm3 14.4l3.9 2.3C36.2 38.1 31.5 41 26 41s-10.2-2.9-12.9-7.3l3.9-2.3c1.8 3.1 5.2 5.1 9 5.1s7.2-2 9-5.1z"/></symbol><symbol viewBox="0 0 52 52" id="smile2"><path d="M26 2C12.7 2 2 12.7 2 26s10.7 24 24 24 24-10.7 24-24S39.3 2 26 2zm9 12c1.7 0 3 1.3 3 3s-1.3 3-3 3-3-1.3-3-3 1.3-3 3-3zm-18 0c1.7 0 3 1.3 3 3s-1.3 3-3 3-3-1.3-3-3 1.3-3 3-3zm9 27c-5.5 0-10.2-2.9-12.9-7.3l3.9-2.3c1.8 3.1 5.2 5.1 9 5.1s7.2-2 9-5.1l3.9 2.3C36.2 38.1 31.5 41 26 41z"/></symbol><symbol viewBox="0 0 0 0" id="sprite"/><symbol viewBox="0 0 48 48" id="table"><path d="M0 3v42h48V3H0zm18 27v-9h12v9H18zm12 3v9H18v-9h12zm0-24v9H18V9h12zM15 9v9H3V9h12zM3 21h12v9H3v-9zm30 0h12v9H33v-9zm0-3V9h12v9H33zM3 33h12v9H3v-9zm30 9v-9h12v9H33z"/></symbol><symbol viewBox="0 0 52 52" id="wink"><path d="M26 50c13.3 0 24-10.7 24-24S39.3 2 26 2 2 12.7 2 26s10.7 24 24 24zm0-43.5c10.8 0 19.5 8.7 19.5 19.5S36.8 45.5 26 45.5 6.5 36.8 6.5 26 15.2 6.5 26 6.5zm1.4 28.8C34 34 39.1 31 41 27.1 40 35 33.4 41 25.5 41c-5.6 0-10.5-3-13.3-7.5 3.3 2.5 9.1 3 15.2 1.8zM32 18.5c0-2.5 1.3-4.5 3-4.5s3 2 3 4.5-1.3 4.5-3 4.5-3-2-3-4.5zm-13.5.9c-2 0-3.6.7-4.2 1.8-.2-.3-.3-1.5-.3-1.8 0-1.5 2-2.6 4.5-2.6S23 18 23 19.4c0 .3-.1 1.5-.3 1.8-.6-1.1-2.2-1.8-4.2-1.8z"/></symbol><symbol viewBox="0 0 52 52" id="wink2"><path d="M26 2C12.7 2 2 12.7 2 26s10.7 24 24 24 24-10.7 24-24S39.3 2 26 2zm9 12c1.7 0 3 2 3 4.5S36.7 23 35 23s-3-2-3-4.5 1.3-4.5 3-4.5zm-16.5 2.6c2.8 0 4.8 1 4.8 2.7 0 .3.2 2 0 2.3-.7-1.2-2.6-2-4.8-2s-4.1.8-4.8 2c-.2-.3 0-2 0-2.3 0-1.6 2-2.7 4.8-2.7zm7 24.4c-5.6 0-10.5-3-13.3-7.5 3.3 2.6 9.1 3.1 15.2 1.9C34 34 39.1 31 41 27.1 39.9 34.9 33.4 41 25.5 41z"/></symbol></svg>