<svg xmlns="http://www.w3.org/2000/svg" width="48" height="48" viewBox="0 0 48 48">
  <path fill-opacity=".3" d="M24.02 42.98L47.28 14c-.9-.68-9.85-8-23.28-8S1.62 13.32.72 14l23.26 28.98.02.02.02-.02z"/>
  <path d="M13.34 29.72l10.65 13.27.01.01.01-.01 10.65-13.27C34.13 29.31 30.06 26 24 26s-10.13 3.31-10.66 3.72z">
    <animate attributeName="fill-opacity" dur="4s" repeatCount="indefinite"
             values="0; 1; 1; 0; 0;" keyTimes="0; 0.1; 0.7; 0.8; 1"/>
  </path>
  <path d="M7.07 21.91l16.92 21.07.01.02.02-.02 16.92-21.07C40.08 21.25 33.62 16 24 16c-9.63 0-16.08 5.25-16.93 5.91z">
    <animate attributeName="fill-opacity" dur="4s" repeatCount="indefinite"
             values="0; 0; 1; 1; 0; 0;" keyTimes="0; 0.3; 0.4; 0.7; 0.8; 1"/>
  </path>
  <path d="M24.02 42.98L47.28 14c-.9-.68-9.85-8-23.28-8S1.62 13.32.72 14l23.26 28.98.02.02.02-.02z">
    <animate attributeName="fill-opacity" dur="4s" repeatCount="indefinite"
             values="0; 0; 1; 1; 0; 0;" keyTimes="0; 0.6; 0.7; 0.8; 0.8; 1"/>
  </path>
</svg>
