<?xml version="1.0" encoding="utf-8"?>
<!-- Generator: Adobe Illustrator 19.2.1, SVG Export Plug-In . SVG Version: 6.00 Build 0)  -->
<svg version="1.1" id="Layer_1" xmlns="http://www.w3.org/2000/svg" xmlns:xlink="http://www.w3.org/1999/xlink" x="0px" y="0px"
	 viewBox="0 0 52 52" style="enable-background:new 0 0 52 52;" xml:space="preserve">
<path d="M26,50c13.3,0,24-10.7,24-24S39.3,2,26,2S2,12.7,2,26S12.7,50,26,50z M26,6.5c10.8,0,19.5,8.7,19.5,19.5S36.8,45.5,26,45.5
	S6.5,36.8,6.5,26S15.2,6.5,26,6.5z M27.4,35.3C34,34,39.1,31,41,27.1c-1,7.9-7.6,13.9-15.5,13.9c-5.6,0-10.5-3-13.3-7.5
	C15.5,36,21.3,36.5,27.4,35.3L27.4,35.3z M32,18.5c0-2.5,1.3-4.5,3-4.5s3,2,3,4.5S36.7,23,35,23S32,21,32,18.5z M18.5,19.4
	c-2,0-3.6,0.7-4.2,1.8c-0.2-0.3-0.3-1.5-0.3-1.8c0-1.5,2-2.6,4.5-2.6s4.5,1.2,4.5,2.6c0,0.3-0.1,1.5-0.3,1.8
	C22.1,20.1,20.5,19.4,18.5,19.4z"/>
</svg>
