<?xml version="1.0" encoding="utf-8"?>
<!-- Generator: Adobe Illustrator 19.2.1, SVG Export Plug-In . SVG Version: 6.00 Build 0)  -->
<svg version="1.1" id="Layer_1" xmlns="http://www.w3.org/2000/svg" xmlns:xlink="http://www.w3.org/1999/xlink" x="0px" y="0px"
	 viewBox="0 0 52 52" style="enable-background:new 0 0 52 52;" xml:space="preserve">
<path d="M26,2C12.7,2,2,12.7,2,26s10.7,24,24,24s24-10.7,24-24S39.3,2,26,2z M35,14c1.7,0,3,2,3,4.5S36.7,23,35,23s-3-2-3-4.5
	S33.3,14,35,14z M18.5,16.6c2.8,0,4.8,1,4.8,2.7c0,0.3,0.2,2,0,2.3c-0.7-1.2-2.6-2-4.8-2s-4.1,0.8-4.8,2c-0.2-0.3,0-2,0-2.3
	C13.7,17.7,15.7,16.6,18.5,16.6z M25.5,41c-5.6,0-10.5-3-13.3-7.5c3.3,2.6,9.1,3.1,15.2,1.9C34,34,39.1,31,41,27.1
	C39.9,34.9,33.4,41,25.5,41L25.5,41z"/>
</svg>
