<svg style="position: absolute; width: 0; height: 0;" width="0" height="0" version="1.1" xmlns="http://www.w3.org/2000/svg" xmlns:xlink="http://www.w3.org/1999/xlink">
<defs>
<symbol id="icon-file_download" viewBox="0 0 24 24">
<title>file_download</title>
<path class="path1" d="M5.016 18h13.969v2.016h-13.969v-2.016zM18.984 9l-6.984 6.984-6.984-6.984h3.984v-6h6v6h3.984z"></path>
</symbol>
<symbol id="icon-smile" viewBox="0 0 48 48">
<title>smile</title>
<path class="path1" d="M24 48c13.255 0 24-10.745 24-24s-10.745-24-24-24-24 10.745-24 24 10.745 24 24 24zM24 4.5c10.77 0 19.5 8.73 19.5 19.5s-8.73 19.5-19.5 19.5-19.5-8.73-19.5-19.5 8.73-19.5 19.5-19.5zM12 15c0-1.657 1.343-3 3-3s3 1.343 3 3c0 1.657-1.343 3-3 3s-3-1.343-3-3zM30 15c0-1.657 1.343-3 3-3s3 1.343 3 3c0 1.657-1.343 3-3 3s-3-1.343-3-3zM33.005 29.403l3.859 2.315c-2.623 4.363-7.402 7.282-12.864 7.282s-10.24-2.919-12.864-7.282l3.859-2.315c1.836 3.054 5.182 5.097 9.005 5.097s7.168-2.043 9.005-5.097z"></path>
</symbol>
<symbol id="icon-smile2" viewBox="0 0 48 48">
<title>smile2</title>
<path class="path1" d="M24 0c-13.255 0-24 10.745-24 24s10.745 24 24 24 24-10.745 24-24-10.745-24-24-24zM33 12c1.657 0 3 1.343 3 3s-1.343 3-3 3-3-1.343-3-3 1.343-3 3-3zM15 12c1.657 0 3 1.343 3 3s-1.343 3-3 3-3-1.343-3-3 1.343-3 3-3zM24 39c-5.461 0-10.241-2.919-12.864-7.282l3.859-2.315c1.836 3.054 5.182 5.097 9.005 5.097s7.168-2.043 9.005-5.097l3.859 2.315c-2.623 4.363-7.402 7.282-12.864 7.282z"></path>
</symbol>
<symbol id="icon-sad" viewBox="0 0 48 48">
<title>sad</title>
<path class="path1" d="M24 48c13.255 0 24-10.745 24-24s-10.745-24-24-24-24 10.745-24 24 10.745 24 24 24zM24 4.5c10.77 0 19.5 8.73 19.5 19.5s-8.73 19.5-19.5 19.5-19.5-8.73-19.5-19.5 8.73-19.5 19.5-19.5zM12 15c0-1.657 1.343-3 3-3s3 1.343 3 3c0 1.657-1.343 3-3 3s-3-1.343-3-3zM30 15c0-1.657 1.343-3 3-3s3 1.343 3 3c0 1.657-1.343 3-3 3s-3-1.343-3-3zM14.995 36.597l-3.859-2.315c2.623-4.363 7.402-7.282 12.864-7.282s10.24 2.919 12.864 7.282l-3.859 2.315c-1.836-3.054-5.182-5.097-9.005-5.097s-7.168 2.043-9.005 5.097z"></path>
</symbol>
<symbol id="icon-sad2" viewBox="0 0 48 48">
<title>sad2</title>
<path class="path1" d="M24 0c-13.255 0-24 10.745-24 24s10.745 24 24 24 24-10.745 24-24-10.745-24-24-24zM33 12c1.657 0 3 1.343 3 3s-1.343 3-3 3-3-1.343-3-3 1.343-3 3-3zM15 12c1.657 0 3 1.343 3 3s-1.343 3-3 3-3-1.343-3-3 1.343-3 3-3zM33.005 36.597c-1.836-3.054-5.182-5.097-9.005-5.097s-7.168 2.043-9.005 5.097l-3.859-2.315c2.623-4.363 7.402-7.282 12.864-7.282s10.241 2.919 12.864 7.282l-3.859 2.315z"></path>
</symbol>
<symbol id="icon-grin" viewBox="0 0 48 48">
<title>grin</title>
<path class="path1" d="M24 48c13.255 0 24-10.745 24-24s-10.745-24-24-24-24 10.745-24 24 10.745 24 24 24zM24 4.5c10.77 0 19.5 8.73 19.5 19.5s-8.73 19.5-19.5 19.5-19.5-8.73-19.5-19.5 8.73-19.5 19.5-19.5zM9 24v3c0 6.6 5.4 12 12 12h6c6.6 0 12-5.4 12-12v-3h-30zM18 35.484c-1.244-0.443-2.387-1.164-3.354-2.13-1.707-1.706-2.646-3.963-2.646-6.354h6v8.484zM27 36h-6v-9h6v9zM33.354 33.354c-0.967 0.967-2.11 1.687-3.354 2.13v-8.484h6c0 2.391-0.94 4.647-2.646 6.354zM10.563 18c0 0 0 0 0 0 0.458 0 0.849-0.331 0.925-0.782 0.289-1.72 1.766-2.968 3.512-2.968s3.223 1.248 3.512 2.968c0.076 0.451 0.467 0.782 0.924 0.782s0.849-0.331 0.925-0.782c0.051-0.302 0.076-0.606 0.076-0.905 0-2.998-2.439-5.438-5.437-5.438s-5.438 2.439-5.438 5.438c0 0.299 0.026 0.604 0.076 0.905 0.076 0.451 0.467 0.782 0.925 0.782zM28.563 18c0 0 0 0 0 0 0.458 0 0.849-0.331 0.925-0.782 0.289-1.72 1.766-2.968 3.512-2.968s3.223 1.248 3.512 2.968c0.076 0.451 0.467 0.782 0.924 0.782s0.849-0.331 0.924-0.782c0.051-0.302 0.076-0.606 0.076-0.905 0-2.998-2.439-5.438-5.438-5.438s-5.438 2.439-5.438 5.438c0 0.299 0.026 0.604 0.076 0.905 0.076 0.451 0.467 0.782 0.925 0.782z"></path>
</symbol>
<symbol id="icon-grin2" viewBox="0 0 48 48">
<title>grin2</title>
<path class="path1" d="M24 0c-13.255 0-24 10.745-24 24s10.745 24 24 24c13.255 0 24-10.745 24-24s-10.745-24-24-24zM33 11.063c2.998 0 5.438 2.439 5.438 5.438 0 0.299-0.026 0.604-0.076 0.905-0.076 0.451-0.467 0.782-0.925 0.782s-0.849-0.331-0.924-0.782c-0.289-1.72-1.766-2.499-3.512-2.499s-3.223 0.779-3.512 2.499c-0.076 0.451-0.467 0.782-0.924 0.782-0 0 0 0-0 0-0.458 0-0.849-0.331-0.924-0.782-0.051-0.302-0.076-0.606-0.076-0.905 0-2.998 2.439-5.438 5.438-5.438zM15 11.063c2.998 0 5.438 2.439 5.438 5.438 0 0.299-0.026 0.604-0.076 0.905-0.076 0.451-0.467 0.782-0.925 0.782s-0.849-0.331-0.924-0.782c-0.289-1.72-1.766-2.499-3.512-2.499s-3.223 0.779-3.512 2.499c-0.076 0.451-0.467 0.782-0.924 0.782 0 0 0 0 0 0-0.458 0-0.849-0.331-0.925-0.782-0.051-0.302-0.076-0.606-0.076-0.905 0-2.998 2.439-5.438 5.438-5.438zM9 27h9v11.618c-5.161-1.341-9-6.053-9-11.618zM21 39v-12h6v12h-6zM30 38.618v-11.618h9c0 5.565-3.839 10.277-9 11.618z"></path>
</symbol>
<symbol id="icon-hipster" viewBox="0 0 48 48">
<title>hipster</title>
<path class="path1" d="M24 48c13.255 0 24-10.745 24-24s-10.745-24-24-24-24 10.745-24 24 10.745 24 24 24zM24 4.5c10.77 0 19.5 8.73 19.5 19.5s-8.73 19.5-19.5 19.5-19.5-8.73-19.5-19.5 8.73-19.5 19.5-19.5zM12 15c0-1.657 1.343-3 3-3s3 1.343 3 3-1.343 3-3 3-3-1.343-3-3zM30 15c0-1.657 1.343-3 3-3s3 1.343 3 3-1.343 3-3 3-3-1.343-3-3z"></path>
<path class="path2" d="M31.682 25.318c-1.757-1.757-4.607-1.757-6.364 0s-1.757 4.607 0 6.364c0.056 0.056 0.114 0.111 0.173 0.164 4.056 3.68 13.509-0.086 13.509-4.846-2.906 1.875-5.177 0.459-7.318-1.682z"></path>
<path class="path3" d="M16.318 25.318c1.757-1.757 4.607-1.757 6.364 0s1.757 4.607 0 6.364c-0.056 0.056-0.114 0.111-0.173 0.164-4.056 3.68-13.509-0.086-13.509-4.846 2.906 1.875 5.177 0.459 7.318-1.682z"></path>
</symbol>
<symbol id="icon-hipster2" viewBox="0 0 48 48">
<title>hipster2</title>
<path class="path1" d="M24 0c-13.255 0-24 10.745-24 24s10.745 24 24 24 24-10.745 24-24-10.745-24-24-24zM33 12c1.657 0 3 1.343 3 3s-1.343 3-3 3-3-1.343-3-3 1.343-3 3-3zM15 12c1.657 0 3 1.343 3 3s-1.343 3-3 3-3-1.343-3-3 1.343-3 3-3zM25.491 31.846c-0.059-0.053-0.116-0.107-0.173-0.164-0.878-0.878-1.318-2.030-1.318-3.181-0 1.151-0.439 2.303-1.318 3.181-0.056 0.056-0.114 0.111-0.173 0.164-4.056 3.68-13.509-0.086-13.509-4.846 2.906 1.875 5.177 0.459 7.318-1.682 1.757-1.757 4.607-1.757 6.364 0 0.878 0.878 1.318 2.030 1.318 3.181 0-1.151 0.439-2.303 1.318-3.181 1.757-1.757 4.607-1.757 6.364 0 2.14 2.141 4.412 3.557 7.318 1.682 0 4.759-9.453 8.526-13.509 4.846z"></path>
</symbol>
<symbol id="icon-table2" viewBox="0 0 48 48">
<title>table2</title>
<path class="path1" d="M0 3v42h48v-42h-48zM18 30v-9h12v9h-12zM30 33v9h-12v-9h12zM30 9v9h-12v-9h12zM15 9v9h-12v-9h12zM3 21h12v9h-12v-9zM33 21h12v9h-12v-9zM33 18v-9h12v9h-12zM3 33h12v9h-12v-9zM33 42v-9h12v9h-12z"></path>
</symbol>
</defs>
</svg>
