<?xml version="1.0" encoding="utf-8"?>
<!-- Generated by IcoMoon.io -->
<!DOCTYPE svg PUBLIC "-//W3C//DTD SVG 1.1//EN" "http://www.w3.org/Graphics/SVG/1.1/DTD/svg11.dtd">
<svg version="1.1" xmlns="http://www.w3.org/2000/svg" xmlns:xlink="http://www.w3.org/1999/xlink" width="48" height="48" viewBox="0 0 48 48">
<path d="M24 48c13.255 0 24-10.745 24-24s-10.745-24-24-24-24 10.745-24 24 10.745 24 24 24zM24 4.5c10.77 0 19.5 8.73 19.5 19.5s-8.73 19.5-19.5 19.5-19.5-8.73-19.5-19.5 8.73-19.5 19.5-19.5zM12 15c0-1.657 1.343-3 3-3s3 1.343 3 3-1.343 3-3 3-3-1.343-3-3zM30 15c0-1.657 1.343-3 3-3s3 1.343 3 3-1.343 3-3 3-3-1.343-3-3z"></path>
<path d="M31.682 25.318c-1.757-1.757-4.607-1.757-6.364 0s-1.757 4.607 0 6.364c0.056 0.056 0.114 0.111 0.173 0.164 4.056 3.68 13.509-0.086 13.509-4.846-2.906 1.875-5.177 0.459-7.318-1.682z"></path>
<path d="M16.318 25.318c1.757-1.757 4.607-1.757 6.364 0s1.757 4.607 0 6.364c-0.056 0.056-0.114 0.111-0.173 0.164-4.056 3.68-13.509-0.086-13.509-4.846 2.906 1.875 5.177 0.459 7.318-1.682z"></path>
</svg>
