<?xml version="1.0" encoding="utf-8"?>
<!-- Generated by IcoMoon.io -->
<!DOCTYPE svg PUBLIC "-//W3C//DTD SVG 1.1//EN" "http://www.w3.org/Graphics/SVG/1.1/DTD/svg11.dtd">
<svg version="1.1" xmlns="http://www.w3.org/2000/svg" xmlns:xlink="http://www.w3.org/1999/xlink" width="48" height="48" viewBox="0 0 48 48">
<path d="M24 0c-13.255 0-24 10.745-24 24s10.745 24 24 24 24-10.745 24-24-10.745-24-24-24zM33 12c1.657 0 3 1.343 3 3s-1.343 3-3 3-3-1.343-3-3 1.343-3 3-3zM15 12c1.657 0 3 1.343 3 3s-1.343 3-3 3-3-1.343-3-3 1.343-3 3-3zM25.491 31.846c-0.059-0.053-0.116-0.107-0.173-0.164-0.878-0.878-1.318-2.030-1.318-3.181-0 1.151-0.439 2.303-1.318 3.181-0.056 0.056-0.114 0.111-0.173 0.164-4.056 3.68-13.509-0.086-13.509-4.846 2.906 1.875 5.177 0.459 7.318-1.682 1.757-1.757 4.607-1.757 6.364 0 0.878 0.878 1.318 2.030 1.318 3.181 0-1.151 0.439-2.303 1.318-3.181 1.757-1.757 4.607-1.757 6.364 0 2.14 2.141 4.412 3.557 7.318 1.682 0 4.759-9.453 8.526-13.509 4.846z"></path>
</svg>
