<?xml version="1.0" encoding="utf-8"?>
<!-- Generated by IcoMoon.io -->
<!DOCTYPE svg PUBLIC "-//W3C//DTD SVG 1.1//EN" "http://www.w3.org/Graphics/SVG/1.1/DTD/svg11.dtd">
<svg version="1.1" xmlns="http://www.w3.org/2000/svg" xmlns:xlink="http://www.w3.org/1999/xlink" width="48" height="48" viewBox="0 0 48 48">
<path d="M24 48c13.255 0 24-10.745 24-24s-10.745-24-24-24-24 10.745-24 24 10.745 24 24 24zM24 4.5c10.77 0 19.5 8.73 19.5 19.5s-8.73 19.5-19.5 19.5-19.5-8.73-19.5-19.5 8.73-19.5 19.5-19.5zM12 15c0-1.657 1.343-3 3-3s3 1.343 3 3c0 1.657-1.343 3-3 3s-3-1.343-3-3zM30 15c0-1.657 1.343-3 3-3s3 1.343 3 3c0 1.657-1.343 3-3 3s-3-1.343-3-3zM14.995 36.597l-3.859-2.315c2.623-4.363 7.402-7.282 12.864-7.282s10.24 2.919 12.864 7.282l-3.859 2.315c-1.836-3.054-5.182-5.097-9.005-5.097s-7.168 2.043-9.005 5.097z"></path>
</svg>
