<?xml version="1.0" encoding="utf-8"?>
<!-- Generated by IcoMoon.io -->
<!DOCTYPE svg PUBLIC "-//W3C//DTD SVG 1.1//EN" "http://www.w3.org/Graphics/SVG/1.1/DTD/svg11.dtd">
<svg version="1.1" xmlns="http://www.w3.org/2000/svg" xmlns:xlink="http://www.w3.org/1999/xlink" width="48" height="48" viewBox="0 0 48 48">
<path d="M0 3v42h48v-42h-48zM18 30v-9h12v9h-12zM30 33v9h-12v-9h12zM30 9v9h-12v-9h12zM15 9v9h-12v-9h12zM3 21h12v9h-12v-9zM33 21h12v9h-12v-9zM33 18v-9h12v9h-12zM3 33h12v9h-12v-9zM33 42v-9h12v9h-12z"></path>
</svg>
